<svg width="132" height="31" fill="none" xmlns="http://www.w3.org/2000/svg"><path d="M7.26 22.84c-.56 0-1-.19-1.32-.57-1.16-2.36-2.25-5.37-3.27-9.03C1.65 9.56 1.01 6.12.75 2.92l2.61-1.23.78.48c-.08.9-.12 1.91-.12 3.03 0 4.68.97 9.88 2.91 15.6.44-2.7 1.28-5.92 2.52-9.66s2.49-6.7 3.75-8.88c.42-.38.91-.57 1.47-.57.08 0 .12.05.12.15 0 .1-.12.45-.36 1.05-.24.6-.56 1.45-.96 2.55-.4 1.1-.83 2.36-1.29 3.78-1.06 3.38-1.91 7.44-2.55 12.18l-2.37 1.44zM21.526 8.62c.04.6.06 1.22.06 1.86 0 3.48-.61 7.31-1.83 11.49-.28.28-.66.42-1.14.42-.1 0-.17-.01-.21-.03-.02-.02-.02-.05 0-.09.48-2.86.72-5.49.72-7.89 0-2.4-.25-4.56-.75-6.48l.72-.45 2.43 1.17zm-1.23-2.97c-.5 0-.89-.17-1.17-.51-.26-.34-.39-.77-.39-1.29s.23-.97.69-1.35c.46-.4 1.13-.66 2.01-.78.6.5.9 1.1.9 1.8 0 .68-.21 1.21-.63 1.59-.42.36-.89.54-1.41.54zM34.98 8.29l-.9 2.1c-.98.2-1.98.31-3 .33-.38 5.32-.88 9.16-1.5 11.52-.24.28-.66.42-1.26.42-.14 0-.21-.03-.21-.09.44-2.84.66-5.6.66-8.28 0-.98-.03-2.19-.09-3.63-1.06-.12-1.89-.26-2.49-.42-.12-.06-.25-.26-.39-.6-.12-.36-.19-.64-.21-.84l.12-.18c.78.16 1.74.24 2.88.24-.12-2.2-.23-3.68-.33-4.44l.72-.51 2.43 1.29-.18 3.51c1.06-.12 2.21-.42 3.45-.9l.3.48zm9.413-.03l2.43-1.05.72.42c-.66 1.94-.99 4.18-.99 6.72 0 1.08.09 2.58.27 4.5.18 1.92.35 3.22.51 3.9 0 .06-.15.09-.45.09-.3 0-.59-.14-.87-.42-.64-1.48-1.15-3.66-1.53-6.54-.84 2-1.85 3.63-3.03 4.89-1.16 1.26-2.21 1.89-3.15 1.89-1.8 0-2.7-1.13-2.7-3.39 0-1.3.26-2.55.78-3.75.52-1.2 1.22-2.25 2.1-3.15 1.76-1.78 3.73-3.15 5.91-4.11zm-4.47 10.8c.64 0 1.35-.51 2.13-1.53.8-1.04 1.51-2.5 2.13-4.38-.02-.28-.03-.82-.03-1.62 0-.8.01-1.39.03-1.77-1.72.98-3.11 2.03-4.17 3.15-1.06 1.1-1.59 2.4-1.59 3.9s.5 2.25 1.5 2.25zM53.715.64l2.4 1.14c.22 1.48.33 3.09.33 4.83 0 1.72-.1 3.56-.3 5.52-.42 3.96-1.02 7.39-1.8 10.29-.12.14-.33.26-.63.36-.3.1-.54.15-.72.15-.18 0-.27-.05-.27-.15.94-4 1.41-7.95 1.41-11.85 0-3.9-.39-7.17-1.17-9.81l.75-.48zm11.676 7.98c.04.6.06 1.22.06 1.86 0 3.48-.61 7.31-1.83 11.49-.28.28-.66.42-1.14.42-.1 0-.17-.01-.21-.03-.02-.02-.02-.05 0-.09.48-2.86.72-5.49.72-7.89 0-2.4-.25-4.56-.75-6.48l.72-.45 2.43 1.17zm-1.23-2.97c-.5 0-.89-.17-1.17-.51-.26-.34-.39-.77-.39-1.29s.23-.97.69-1.35c.46-.4 1.13-.66 2.01-.78.6.5.9 1.1.9 1.8 0 .68-.21 1.21-.63 1.59-.42.36-.89.54-1.41.54zm17.683 2.13l-.03.18c-2.02 3.32-3.73 7.95-5.13 13.89-1.12 4.8-3.34 7.69-6.66 8.67l-.75-.54.72-2.91c.4.06.74.09 1.02.09 1.88 0 3.27-1.54 4.17-4.62-.44.28-.79.42-1.05.42s-.47-.04-.63-.12c-.76-1.58-1.43-3.61-2.01-6.09-.58-2.5-.87-4.75-.87-6.75 0-.84.05-1.52.15-2.04l.75-.51 2.4 1.2c-.36 1.5-.54 3.19-.54 5.07 0 1.86.26 4.2.78 7.02.58-2.02 1.48-4.23 2.7-6.63 1.22-2.42 2.42-4.43 3.6-6.03.38-.28.81-.42 1.29-.42.06 0 .09.04.09.12zm18.226-4.86c-.36 1.14-.69 2.65-.99 4.53-.3 1.86-.45 3.66-.45 5.4 0 5.08 1.3 7.62 3.9 7.62 1.18 0 2.14-.61 2.88-1.83.74-1.22 1.23-2.7 1.47-4.44-.18-1.74-.27-3.57-.27-5.49 0-1.92.19-4.1.57-6.54l.78-.48 2.55 1.23c-.92 2.36-1.38 5.99-1.38 10.89 0 3.64.15 6.68.45 9.12 0 .06-.08.09-.24.09-.52 0-.91-.15-1.17-.45-.42-2.08-.73-3.86-.93-5.34-1 3.84-2.9 5.76-5.7 5.76-1.08 0-2-.32-2.76-.96-.76-.64-1.34-1.53-1.74-2.67-.74-2.08-1.11-4.65-1.11-7.71 0-3.08.27-6.24.81-9.48l.78-.48 2.55 1.23zm24.34 5.16l-.72 3.45c-.26-.08-.61-.12-1.05-.12-.44 0-.86.14-1.26.42-.4.28-.77.76-1.11 1.44-.34.68-.63 1.39-.87 2.13s-.48 1.53-.72 2.37l-.6 2.1c-.14.54-.43 1.4-.87 2.58-.26.3-.63.45-1.11.45-.16 0-.24-.04-.24-.12.52-2.54.78-5.06.78-7.56 0-2.52-.31-4.94-.93-7.26l.72-.51 2.43 1.29c.14 1.44.21 2.71.21 3.81v.42c1.24-2.9 2.81-4.72 4.71-5.46l.63.57zm6.483.54c.04.6.06 1.22.06 1.86 0 3.48-.61 7.31-1.83 11.49-.28.28-.66.42-1.14.42-.1 0-.17-.01-.21-.03-.02-.02-.02-.05 0-.09.48-2.86.72-5.49.72-7.89 0-2.4-.25-4.56-.75-6.48l.72-.45 2.43 1.17zm-1.23-2.97c-.5 0-.89-.17-1.17-.51-.26-.34-.39-.77-.39-1.29s.23-.97.69-1.35c.46-.4 1.13-.66 2.01-.78.6.5.9 1.1.9 1.8 0 .68-.21 1.21-.63 1.59-.42.36-.89.54-1.41.54z" fill="#000"/></svg>