<svg width="13" height="13" fill="none" xmlns="http://www.w3.org/2000/svg"><path d="M6.5 3.25C4.42 3.25 2.8 4.49.812 6.5 2.524 8.219 3.962 9.75 6.5 9.75c2.537 0 4.403-1.94 5.688-3.214C10.871 5.043 9.008 3.25 6.5 3.25zm0 5.568c-1.254 0-2.275-1.04-2.275-2.318 0-1.28 1.02-2.318 2.275-2.318 1.254 0 2.275 1.04 2.275 2.318 0 1.28-1.02 2.318-2.275 2.318z" fill="#FF1493"/><path d="M6.5 5.687c0-.2.073-.383.193-.525a1.211 1.211 0 00-.193-.016c-.731 0-1.328.607-1.328 1.354 0 .746.597 1.353 1.328 1.353.731 0 1.328-.607 1.328-1.353 0-.059-.005-.117-.01-.175A.812.812 0 016.5 5.688z" fill="#FF1493"/></svg>