<svg width="13" height="13" fill="none" xmlns="http://www.w3.org/2000/svg"><path fill-rule="evenodd" clip-rule="evenodd" d="M6.5 0a6.5 6.5 0 100 13 6.5 6.5 0 000-13zM4.843 9.791a4.994 4.994 0 001.65.275c.63 0 1.163-.092 1.595-.275.433-.19.752-.444.957-.759.213-.323.32-.678.32-1.067 0-.47-.122-.84-.364-1.111a2.17 2.17 0 00-.89-.616c-.345-.14-.8-.279-1.365-.418a15.442 15.442 0 01-1.144-.319 1.995 1.995 0 01-.704-.429c-.183-.19-.275-.44-.275-.748 0-.41.169-.744.506-1.001.345-.264.855-.396 1.53-.396.351 0 .71.055 1.077.165.367.103.712.26 1.034.473l.275-.649a3.61 3.61 0 00-1.1-.495 4.48 4.48 0 00-1.287-.187c-.63 0-1.158.095-1.584.286-.425.19-.74.447-.946.77a1.894 1.894 0 00-.308 1.056c0 .477.121.854.363 1.133.25.279.547.488.891.627.345.132.807.271 1.386.418.484.117.862.227 1.133.33.272.095.499.235.682.418.19.183.286.429.286.737 0 .403-.172.733-.517.99-.344.25-.861.374-1.55.374-.492 0-.969-.084-1.43-.253-.463-.176-.833-.403-1.112-.682l-.319.627c.286.3.69.543 1.21.726z" fill="#FF1493"/></svg>